<svg xmlns:inkscape="http://www.inkscape.org/namespaces/inkscape" xmlns:sodipodi="http://sodipodi.sourceforge.net/DTD/sodipodi-0.dtd" xmlns="http://www.w3.org/2000/svg" xmlns:svg="http://www.w3.org/2000/svg" version="1.1" id="svg1" sodipodi:docname="MIC TRAZEA-19.eps" viewBox="491.74 394.78 812.26 258.64">
  <defs id="defs1">
    <linearGradient x1="0" y1="0" x2="1" y2="0" gradientUnits="userSpaceOnUse" gradientTransform="matrix(1939.82,0,0,-1939.82,5818.18,3749.27)" spreadMethod="pad" id="linearGradient7">
      <stop style="stop-opacity:1;stop-color:#4367ba" offset="0" id="stop4"/>
      <stop style="stop-opacity:1;stop-color:#4367ba" offset="0.00268684" id="stop5"/>
      <stop style="stop-opacity:1;stop-color:#45bbca" offset="0.493738" id="stop6"/>
      <stop style="stop-opacity:1;stop-color:#44bc5f" offset="1" id="stop7"/>
    </linearGradient>
    <clipPath clipPathUnits="userSpaceOnUse" id="clipPath7">
      <path d="m 7696.62,3909.2 -613.8,-272.79 c 31.32,128.85 116.4,482.54 130.04,578 11.8,82.59 -48.22,104.02 -89.05,101.7 -19.6,-1.11 -38.74,-6.41 -56.65,-14.44 L 5879.57,3769.09 v 369.74 c 0,286.16 232.81,518.96 518.96,518.96 h 779.12 c 286.16,0 518.97,-232.8 518.97,-518.96 z m -1085.51,-178.55 73.49,7.87 c 47.29,5.07 84.65,42.42 89.72,89.72 l 7.87,73.49 7.88,-73.49 c 5.06,-47.3 42.42,-84.65 89.71,-89.72 l 73.5,-7.87 -73.5,-7.88 c -47.29,-5.06 -84.65,-42.42 -89.71,-89.71 l -7.88,-73.5 -7.87,73.5 c -5.07,47.29 -42.43,84.65 -89.72,89.71 z m 1085.51,-370.94 c 0,-286.16 -232.81,-518.96 -518.97,-518.96 h -779.12 c -286.15,0 -518.96,232.8 -518.96,518.96 v 182.16 l 613.79,272.79 c -31.32,-128.85 -116.39,-482.54 -130.03,-578 -11.8,-82.59 48.22,-104.02 89.05,-101.7 19.6,1.12 38.73,6.41 56.65,14.44 l 1187.59,532.58 z m -518.97,1359.47 h -779.12 c -320.51,0 -580.35,-259.83 -580.35,-580.35 v -779.12 c 0,-320.52 259.84,-580.35 580.35,-580.35 h 779.12 c 320.52,0 580.35,259.83 580.35,580.35 v 779.12 c 0,320.52 -259.83,580.35 -580.35,580.35 z" id="path7"/>
    </clipPath>
  </defs>
  <sodipodi:namedview id="namedview1" pagecolor="#ffffff" bordercolor="#000000" borderopacity="0.25" inkscape:showpageshadow="2" inkscape:pageopacity="0.0" inkscape:pagecheckerboard="0" inkscape:deskcolor="#d1d1d1">
    <inkscape:page x="0" y="0" inkscape:label="1" id="page1" width="1821.3333" height="1024" margin="0" bleed="0"/>
  </sodipodi:namedview>
  <g id="g1" inkscape:groupmode="layer" inkscape:label="1">
    <g id="group-R5">
      <path id="path2" d="m 8675.56,3791.34 c -7.63,32.64 -19.59,63.1 -35.91,91.4 -16.32,28.29 -35.92,53.05 -58.76,74.27 -22.85,21.22 -48.97,37.8 -78.35,49.79 -29.38,11.96 -60.39,17.95 -93.04,17.95 -34.83,0 -67.74,-5.99 -98.74,-17.95 -31.02,-11.99 -58.77,-28.57 -83.26,-49.79 -24.48,-21.22 -45.16,-45.98 -62.01,-74.27 -16.88,-28.3 -29.13,-58.76 -36.73,-91.4 z m -550.07,-125.68 c 6.53,-33.74 18.21,-65.56 35.09,-95.48 16.87,-29.94 37.8,-56.06 62.85,-78.34 25.01,-22.33 53.04,-39.76 84.06,-52.25 31,-12.51 64.47,-18.76 100.37,-18.76 47.89,0 91.67,11.67 131.41,35.1 39.71,23.38 73.71,54.67 102.01,93.84 l 130.58,-75.08 c -41.36,-58.77 -94.14,-105.56 -158.33,-140.37 -64.21,-34.82 -133.84,-52.23 -208.92,-52.23 -60.96,0 -118.08,11.42 -171.39,34.28 -53.33,22.84 -99.84,54.4 -139.55,94.66 -39.74,40.25 -71.01,87.06 -93.86,140.38 -22.85,53.3 -34.28,110.42 -34.28,171.37 0,60.93 11.43,118.07 34.28,171.39 22.85,53.31 54.12,100.1 93.86,140.38 39.71,40.24 86.22,71.81 139.55,94.67 53.31,22.85 109.9,34.27 169.75,34.27 59.83,0 116.15,-11.42 168.94,-34.27 52.77,-22.86 99,-53.87 138.74,-93.04 39.71,-39.17 71,-84.88 93.85,-137.11 22.85,-52.23 34.29,-107.19 34.29,-164.85 0,-19.58 -7.35,-35.91 -22.04,-48.98 -14.69,-13.04 -32.93,-19.58 -54.68,-19.58 h -636.58" style="fill:#44bc5b;fill-opacity:1;fill-rule:nonzero;stroke:none" transform="matrix(0.13333333,0,0,-0.13333333,0,1024)"/>
      <path id="path3" d="m 6346.11,4307.89 c 0,-30.51 -24.74,-55.25 -55.25,-55.25 -30.51,0 -55.25,24.74 -55.25,55.25 0,30.51 24.74,55.25 55.25,55.25 30.51,0 55.25,-24.74 55.25,-55.25" style="fill:#45bbc9;fill-opacity:1;fill-rule:nonzero;stroke:none" transform="matrix(0.13333333,0,0,-0.13333333,0,1024)"/>
      <path id="path4" d="m 7696.62,3909.2 -613.8,-272.79 c 31.32,128.85 116.4,482.54 130.04,578 11.8,82.59 -48.22,104.02 -89.05,101.7 -19.6,-1.11 -38.74,-6.41 -56.65,-14.44 L 5879.57,3769.09 v 369.74 c 0,286.16 232.81,518.96 518.96,518.96 h 779.12 c 286.16,0 518.97,-232.8 518.97,-518.96 z m -1085.51,-178.55 73.49,7.87 c 47.29,5.07 84.65,42.42 89.72,89.72 l 7.87,73.49 7.88,-73.49 c 5.06,-47.3 42.42,-84.65 89.71,-89.72 l 73.5,-7.87 -73.5,-7.88 c -47.29,-5.06 -84.65,-42.42 -89.71,-89.71 l -7.88,-73.5 -7.87,73.5 c -5.07,47.29 -42.43,84.65 -89.72,89.71 z m 1085.51,-370.94 c 0,-286.16 -232.81,-518.96 -518.97,-518.96 h -779.12 c -286.15,0 -518.96,232.8 -518.96,518.96 v 182.16 l 613.79,272.79 c -31.32,-128.85 -116.39,-482.54 -130.03,-578 -11.8,-82.59 48.22,-104.02 89.05,-101.7 19.6,1.12 38.73,6.41 56.65,14.44 l 1187.59,532.58 z m -518.97,1359.47 h -779.12 c -320.51,0 -580.35,-259.83 -580.35,-580.35 v -779.12 c 0,-320.52 259.84,-580.35 580.35,-580.35 h 779.12 c 320.52,0 580.35,259.83 580.35,580.35 v 779.12 c 0,320.52 -259.83,580.35 -580.35,580.35" style="fill:url(#linearGradient7);fill-opacity:1;fill-rule:nonzero;stroke:none" transform="matrix(0.13333333,0,0,-0.13333333,0,1024)" clip-path="url(#clipPath7)"/>
      <path id="path8" d="m 4014.2,4110.14 v 176.33 h -157.13 v -176.33 h -160.45 -8.6 v -124.79 l 8.6,-0.02 v -0.01 h 160.45 v -655.39 h 157.13 v 655.39 h 158.79 v 0.01 l 5.28,0.02 v 124.79 h -5.28 -158.79" style="fill:#4669bb;fill-opacity:1;fill-rule:nonzero;stroke:none" transform="matrix(0.13333333,0,0,-0.13333333,0,1024)"/>
      <path id="path9" d="m 4445.89,4016.53 v 93.61 h -157.15 v -780.21 h 157.15 v 454.08 c 0,30.17 6.62,58.52 19.85,85.05 13.23,26.53 31.13,49.66 53.75,69.44 22.6,19.75 49.33,35.36 80.22,46.82 30.86,11.44 64.51,17.16 100.91,17.16 v 132.64 c -52.94,0 -100.36,-10.68 -142.26,-31.99 -41.92,-21.34 -79.39,-50.21 -112.47,-86.6" style="fill:#4669bb;fill-opacity:1;fill-rule:nonzero;stroke:none" transform="matrix(0.13333333,0,0,-0.13333333,0,1024)"/>
      <path id="path10" d="m 5432.54,3607.68 c -14.89,-35.36 -34.74,-66.31 -59.54,-92.84 -24.82,-26.53 -54.06,-47.59 -87.68,-63.2 -33.65,-15.6 -69.75,-23.4 -108.34,-23.4 -39.7,0 -76.91,7.8 -111.65,23.4 -34.74,15.61 -64.79,36.67 -90.14,63.2 -25.38,26.53 -45.49,57.48 -60.38,92.84 -14.88,35.36 -22.32,72.3 -22.32,110.79 0,38.48 7.44,74.91 22.32,109.24 14.89,34.32 35,64.75 60.38,91.28 25.35,26.53 55.4,47.59 90.14,63.2 34.74,15.61 71.95,23.4 111.65,23.4 38.59,0 74.69,-7.79 108.34,-23.4 33.62,-15.61 62.86,-36.67 87.68,-63.2 24.8,-26.53 44.65,-56.96 59.54,-91.28 14.89,-34.33 22.32,-70.76 22.32,-109.24 0,-38.49 -7.43,-75.43 -22.32,-110.79 z m 22.32,407.28 c -38.61,38.48 -83.26,68.67 -133.97,90.51 -50.73,21.85 -105.32,32.76 -163.76,32.76 -58.46,0 -113.3,-10.91 -164.57,-32.76 -51.29,-21.84 -95.95,-52.03 -133.99,-90.51 -38.05,-38.49 -68.1,-83.24 -90.15,-134.19 -22.07,-50.99 -33.08,-105.61 -33.08,-163.85 0,-58.27 11.01,-112.89 33.08,-163.85 22.05,-50.99 52.1,-95.72 90.15,-134.2 38.04,-38.49 82.7,-68.65 133.99,-90.5 51.27,-21.84 106.11,-32.77 164.57,-32.77 58.44,0 113.03,10.93 163.76,32.77 50.71,21.85 95.36,52.01 133.97,90.5 v -88.94 h 157.15 v 780.21 h -157.15 v -95.18" style="fill:#4669bb;fill-opacity:1;fill-rule:nonzero;stroke:none" transform="matrix(0.13333333,0,0,-0.13333333,0,1024)"/>
      <path id="path11" d="m 9600.53,3611.59 c -14.89,-35.37 -34.74,-66.32 -59.54,-92.84 -24.82,-26.53 -54.06,-47.6 -87.68,-63.21 -33.65,-15.59 -69.75,-23.4 -108.34,-23.4 -39.7,0 -76.91,7.81 -111.65,23.4 -34.74,15.61 -64.79,36.68 -90.14,63.21 -25.38,26.52 -45.49,57.47 -60.37,92.84 -14.89,35.35 -22.33,72.29 -22.33,110.79 0,38.48 7.44,74.91 22.33,109.24 14.88,34.32 34.99,64.75 60.37,91.28 25.35,26.53 55.4,47.59 90.14,63.2 34.74,15.61 71.95,23.4 111.65,23.4 38.59,0 74.69,-7.79 108.34,-23.4 33.62,-15.61 62.86,-36.67 87.68,-63.2 24.8,-26.53 44.65,-56.96 59.54,-91.28 14.89,-34.33 22.32,-70.76 22.32,-109.24 0,-38.5 -7.43,-75.44 -22.32,-110.79 z m 22.32,407.28 c -38.61,38.48 -83.26,68.66 -133.97,90.5 -50.73,21.85 -105.32,32.77 -163.76,32.77 -58.46,0 -113.3,-10.92 -164.57,-32.77 -51.29,-21.84 -95.95,-52.02 -133.99,-90.5 -38.05,-38.5 -68.1,-83.25 -90.15,-134.19 -22.07,-50.99 -33.08,-105.62 -33.08,-163.85 0,-58.28 11.01,-112.9 33.08,-163.85 22.05,-50.99 52.1,-95.73 90.15,-134.2 38.04,-38.5 82.7,-68.66 133.99,-90.51 51.27,-21.84 106.11,-32.77 164.57,-32.77 58.44,0 113.03,10.93 163.76,32.77 50.71,21.85 95.36,52.01 133.97,90.51 v -88.94 H 9780 v 780.21 h -157.15 v -95.18" style="fill:#44bc5b;fill-opacity:1;fill-rule:nonzero;stroke:none" transform="matrix(0.13333333,0,0,-0.13333333,0,1024)"/>
    </g>
  </g>
</svg>